# Blender v2.82 (sub 7) OBJ File: 'brodic.blend'
# www.blender.org
mtllib brodic2.mtl
o Boat_Cube
v 0.995242 0.000000 3.017602
v 1.002325 0.000000 0.021250
v 0.867737 0.000000 -0.991701
v 0.548977 0.000000 -1.990484
v 0.922965 -0.487828 3.017602
v 0.921405 -0.487828 0.021250
v 0.725939 -0.487828 -0.958729
v 0.439861 -0.487828 -1.928875
v 0.582994 -0.683634 3.017602
v 0.581434 -0.683634 0.021250
v 0.458408 -0.683634 -0.903270
v 0.231117 -0.683634 -1.824329
v -0.995242 0.000000 3.017602
v -1.002325 0.000000 0.021250
v -0.867737 0.000000 -0.991701
v -0.548977 0.000000 -1.990484
v 0.000000 0.000000 -3.017602
v -0.922965 -0.487828 3.017602
v -0.921405 -0.487828 0.021250
v -0.725939 -0.487828 -0.958729
v -0.439861 -0.487828 -1.928875
v 0.000000 -0.487828 -2.825569
v 0.000000 0.000000 3.017602
v 0.000000 -0.487828 3.017602
v -0.582994 -0.683634 3.017602
v -0.581434 -0.683634 0.021250
v -0.458408 -0.683634 -0.903270
v -0.231117 -0.683634 -1.824329
v 0.000000 -0.683634 -2.499976
v 0.000000 -0.683634 3.017602
v 0.000000 -0.862620 3.017602
v 0.000000 -0.862620 0.021250
v 0.000000 -0.857673 -0.820935
v 0.000000 -0.819172 -1.728523
vt 0.000000 0.000000
vt 0.000000 0.000000
vt 0.000000 0.000000
vt 0.000000 0.000000
vt 0.000000 0.000000
vt 0.000000 0.000000
vt 0.000000 0.000000
vt 0.000000 0.000000
vt 0.000000 0.000000
vt 0.000000 0.000000
vt 0.000000 0.000000
vt 0.000000 0.000000
vt 0.000000 0.000000
vt 0.000000 0.000000
vt 0.000000 0.000000
vt 0.000000 0.000000
vt 0.000000 0.000000
vt 0.000000 0.000000
vt 0.000000 0.000000
vt 0.000000 0.000000
vt 0.000000 0.000000
vt 0.000000 0.000000
vt 0.000000 0.000000
vt 0.000000 0.000000
vt 0.000000 0.000000
vt 0.000000 0.000000
vt 0.000000 0.000000
vt 0.000000 0.000000
vt 0.000000 0.000000
vt 0.000000 0.000000
vt 0.000000 0.000000
vt 0.000000 0.000000
vt 0.000000 0.000000
vt 0.000000 0.000000
vn 0.8697 -0.2484 -0.4266
vn 0.9782 -0.1623 -0.1300
vn 0.9192 -0.2855 -0.2711
vn 0.9892 -0.1466 -0.0005
vn 0.0000 0.0000 1.0000
vn 0.5658 -0.8126 -0.1396
vn 0.4991 -0.8666 -0.0003
vn 0.6113 -0.7633 -0.2091
vn 0.4966 -0.8623 -0.0991
vn 0.2942 -0.9557 -0.0056
vn 0.3484 -0.9365 -0.0397
vn 0.2935 -0.9560 -0.0002
vn 0.0000 1.0000 0.0000
vn -0.8671 -0.1824 -0.4635
vn -0.9782 -0.1623 -0.1300
vn -0.9239 -0.2439 -0.2949
vn -0.9865 -0.1636 0.0023
vn -0.6221 -0.7611 -0.1834
vn -0.4991 -0.8666 -0.0003
vn -0.7243 -0.5908 -0.3553
vn -0.4966 -0.8623 -0.0991
vn 0.4514 -0.8789 -0.1544
vn -0.3473 -0.9366 -0.0462
vn -0.4666 -0.8770 -0.1151
vn -0.2935 -0.9560 -0.0002
vn 0.8671 -0.1824 -0.4635
vn 0.9398 -0.2858 -0.1874
vn 0.9239 -0.2439 -0.2949
vn 0.9865 -0.1636 0.0023
vn 0.6221 -0.7611 -0.1834
vn 0.7243 -0.5908 -0.3553
vn 0.5784 -0.8121 -0.0770
vn -0.4514 -0.8789 -0.1544
vn 0.3473 -0.9366 -0.0462
vn 0.4666 -0.8770 -0.1151
vn 0.2942 -0.9557 0.0000
vn -0.8697 -0.2484 -0.4266
vn -0.9398 -0.2858 -0.1874
vn -0.9192 -0.2855 -0.2711
vn -0.9892 -0.1466 -0.0005
vn -0.5658 -0.8126 -0.1396
vn -0.6113 -0.7633 -0.2091
vn -0.5784 -0.8121 -0.0770
vn -0.2942 -0.9557 -0.0056
vn -0.3484 -0.9365 -0.0397
vn -0.2942 -0.9557 0.0000
usemtl Material
s off
f 4/1/1 8/2/1 22/3/1
f 3/4/2 2/5/2 6/6/2
f 3/4/3 7/7/3 8/2/3
f 1/8/4 5/9/4 6/6/4
f 5/9/5 1/8/5 23/10/5
f 7/7/6 11/11/6 12/12/6
f 6/6/7 5/9/7 9/13/7
f 8/2/8 12/12/8 29/14/8
f 7/7/9 6/6/9 10/15/9
f 24/16/5 30/17/5 9/13/5
f 10/15/10 32/18/10 33/19/10
f 30/17/5 31/20/5 9/13/5
f 11/11/11 33/19/11 34/21/11
f 10/15/12 9/13/12 31/20/12
f 4/1/13 17/22/13 16/23/13
f 16/23/14 17/22/14 22/3/14
f 19/24/15 14/25/15 15/26/15
f 15/26/16 16/23/16 21/27/16
f 13/28/17 14/25/17 19/24/17
f 23/10/5 13/28/5 18/29/5
f 20/30/18 21/27/18 28/31/18
f 25/32/19 18/29/19 19/24/19
f 21/27/20 22/3/20 29/14/20
f 26/33/21 19/24/21 20/30/21
f 24/16/5 18/29/5 25/32/5
f 12/12/22 34/21/22 29/14/22
f 26/33/23 27/34/23 33/19/23
f 30/17/5 25/32/5 31/20/5
f 27/34/24 28/31/24 34/21/24
f 31/20/25 25/32/25 26/33/25
f 16/23/13 15/26/13 4/1/13
f 4/1/26 22/3/26 17/22/26
f 3/4/27 6/6/27 7/7/27
f 3/4/28 8/2/28 4/1/28
f 1/8/29 6/6/29 2/5/29
f 5/9/5 23/10/5 24/16/5
f 7/7/30 12/12/30 8/2/30
f 6/6/7 9/13/7 10/15/7
f 8/2/31 29/14/31 22/3/31
f 7/7/32 10/15/32 11/11/32
f 24/16/5 9/13/5 5/9/5
f 28/31/33 29/14/33 34/21/33
f 10/15/34 33/19/34 11/11/34
f 11/11/35 34/21/35 12/12/35
f 10/15/36 31/20/36 32/18/36
f 4/1/13 15/26/13 3/4/13
f 15/26/13 14/25/13 2/5/13
f 3/4/13 15/26/13 2/5/13
f 16/23/37 22/3/37 21/27/37
f 19/24/38 15/26/38 20/30/38
f 15/26/39 21/27/39 20/30/39
f 13/28/40 19/24/40 18/29/40
f 23/10/5 18/29/5 24/16/5
f 20/30/41 28/31/41 27/34/41
f 25/32/19 19/24/19 26/33/19
f 21/27/42 29/14/42 28/31/42
f 26/33/43 20/30/43 27/34/43
f 24/16/5 25/32/5 30/17/5
f 26/33/44 33/19/44 32/18/44
f 27/34/45 34/21/45 33/19/45
f 31/20/46 26/33/46 32/18/46
f 13/28/13 23/10/13 14/25/13
f 23/10/13 2/5/13 14/25/13
f 1/8/13 2/5/13 23/10/13
